<?xml version="1.0" encoding="utf-8"?>
<!-- Generator: Adobe Illustrator 16.0.0, SVG Export Plug-In . SVG Version: 6.00 Build 0)  -->
<!DOCTYPE svg PUBLIC "-//W3C//DTD SVG 1.1//EN" "http://www.w3.org/Graphics/SVG/1.1/DTD/svg11.dtd">
<svg version="1.1" xmlns="http://www.w3.org/2000/svg" xmlns:xlink="http://www.w3.org/1999/xlink" x="0px" y="0px"
	 width="841.89px" height="595.28px" viewBox="0 0 841.89 595.28" enable-background="new 0 0 841.89 595.28" xml:space="preserve">
<g id="SCHRAFF">
	<g id="HATCH">
		<rect x="404.701" y="299.92" fill-rule="evenodd" clip-rule="evenodd" fill="#D6D6D6" width="4.555" height="11.034"/>
	</g>
	<g id="HATCH_1_">
		<polygon fill-rule="evenodd" clip-rule="evenodd" fill="#D6D6D6" points="416.862,310.954 422.137,310.954 414.532,299.92 
			409.256,299.92 		"/>
	</g>
	<g id="HATCH_2_">
		<polygon fill-rule="evenodd" clip-rule="evenodd" fill="#D6D6D6" points="404.701,299.92 414.532,299.92 413.923,299.034 
			404.701,299.034 		"/>
	</g>
	<g id="HATCH_3_">
		<polygon fill-rule="evenodd" clip-rule="evenodd" fill="#D6D6D6" points="404.701,299.034 413.923,299.034 419.476,296.872 
			404.701,296.872 		"/>
	</g>
	<g id="HATCH_4_">
		<polygon fill-rule="evenodd" clip-rule="evenodd" fill="#D6D6D6" points="404.701,296.872 419.476,296.872 421.255,294.524 
			404.701,294.524 		"/>
	</g>
	<g id="HATCH_5_">
		<polygon fill-rule="evenodd" clip-rule="evenodd" fill="#D6D6D6" points="404.701,294.524 409.256,294.524 404.701,294.524 		"/>
	</g>
	<g id="HATCH_6_">
		<polygon fill-rule="evenodd" clip-rule="evenodd" fill="#D6D6D6" points="421.255,294.524 422.137,294.524 421.255,294.524 		"/>
	</g>
	<g id="HATCH_7_">
		<rect x="404.701" y="292.354" fill-rule="evenodd" clip-rule="evenodd" fill="#D6D6D6" width="4.555" height="2.17"/>
	</g>
	<g id="HATCH_8_">
		<polygon fill-rule="evenodd" clip-rule="evenodd" fill="#D6D6D6" points="413.923,294.524 421.255,294.524 421.992,292.354 
			417.295,292.354 		"/>
	</g>
	<g id="HATCH_9_">
		<rect x="404.701" y="290.821" fill-rule="evenodd" clip-rule="evenodd" fill="#D6D6D6" width="4.555" height="1.534"/>
	</g>
	<g id="HATCH_10_">
		<polygon fill-rule="evenodd" clip-rule="evenodd" fill="#D6D6D6" points="417.295,292.354 421.992,292.354 422.137,290.821 
			417.627,290.821 		"/>
	</g>
	<g id="HATCH_11_">
		<polygon fill-rule="evenodd" clip-rule="evenodd" fill="#D6D6D6" points="404.701,290.821 409.256,290.821 404.701,290.821 		"/>
	</g>
	<g id="HATCH_12_">
		<polygon fill-rule="evenodd" clip-rule="evenodd" fill="#D6D6D6" points="417.627,290.821 422.137,290.821 417.627,290.821 		"/>
	</g>
	<g id="HATCH_13_">
		<rect x="404.701" y="287.117" fill-rule="evenodd" clip-rule="evenodd" fill="#D6D6D6" width="4.555" height="3.704"/>
	</g>
	<g id="HATCH_14_">
		<polygon fill-rule="evenodd" clip-rule="evenodd" fill="#D6D6D6" points="417.627,290.821 422.137,290.821 421.255,287.117 
			413.923,287.117 		"/>
	</g>
	<g id="HATCH_15_">
		<polygon fill-rule="evenodd" clip-rule="evenodd" fill="#D6D6D6" points="404.701,287.117 409.256,287.117 404.701,287.117 		"/>
	</g>
	<g id="HATCH_16_">
		<polygon fill-rule="evenodd" clip-rule="evenodd" fill="#D6D6D6" points="404.701,287.117 421.255,287.117 413.923,282.607 
			404.701,282.607 		"/>
	</g>
	<g id="HATCH_17_">
		<polygon fill-rule="evenodd" clip-rule="evenodd" fill="#D6D6D6" points="422.645,289.802 422.645,283.1 418.106,283.1 		"/>
	</g>
	<g id="HATCH_18_">
		<rect x="418.106" y="282.607" fill-rule="evenodd" clip-rule="evenodd" fill="#D6D6D6" width="4.539" height="0.493"/>
	</g>
	<g id="HATCH_19_">
		<polygon fill-rule="evenodd" clip-rule="evenodd" fill="#D6D6D6" points="431.95,310.954 437.299,310.954 437.141,310.705 
			431.791,310.705 		"/>
	</g>
	<g id="HATCH_20_">
		<polygon fill-rule="evenodd" clip-rule="evenodd" fill="#D6D6D6" points="422.645,310.705 422.645,304.119 418.106,304.119 		"/>
	</g>
	<g id="HATCH_21_">
		<polygon fill-rule="evenodd" clip-rule="evenodd" fill="#D6D6D6" points="431.791,310.705 437.141,310.705 432.953,304.119 
			427.605,304.119 		"/>
	</g>
	<g id="HATCH_22_">
		<rect x="418.106" y="300.092" fill-rule="evenodd" clip-rule="evenodd" fill="#D6D6D6" width="4.539" height="4.027"/>
	</g>
	<g id="HATCH_23_">
		<polygon fill-rule="evenodd" clip-rule="evenodd" fill="#D6D6D6" points="427.605,304.119 432.953,304.119 430.395,300.092 
			425.045,300.092 		"/>
	</g>
	<g id="HATCH_24_">
		<polygon fill-rule="evenodd" clip-rule="evenodd" fill="#D6D6D6" points="418.106,300.092 422.645,300.092 423.944,298.541 
			418.106,298.541 		"/>
	</g>
	<g id="HATCH_25_">
		<polygon fill-rule="evenodd" clip-rule="evenodd" fill="#D6D6D6" points="425.045,300.092 430.395,300.092 429.408,298.541 
			424.059,298.541 		"/>
	</g>
	<g id="HATCH_26_">
		<polygon fill-rule="evenodd" clip-rule="evenodd" fill="#D6D6D6" points="418.106,298.541 423.944,298.541 424.009,298.464 
			418.247,298.464 		"/>
	</g>
	<g id="HATCH_27_">
		<polygon fill-rule="evenodd" clip-rule="evenodd" fill="#D6D6D6" points="424.059,298.541 429.408,298.541 429.358,298.464 
			424.009,298.464 		"/>
	</g>
	<g id="HATCH_28_">
		<polygon fill-rule="evenodd" clip-rule="evenodd" fill="#D6D6D6" points="418.247,298.464 429.358,298.464 427.052,294.834 
			421.733,294.834 		"/>
	</g>
	<g id="HATCH_29_">
		<polygon fill-rule="evenodd" clip-rule="evenodd" fill="#D6D6D6" points="421.733,294.834 427.052,294.834 428.565,293.027 
			422.423,293.027 		"/>
	</g>
	<g id="HATCH_30_">
		<polygon fill-rule="evenodd" clip-rule="evenodd" fill="#D6D6D6" points="422.423,293.027 422.645,293.027 422.645,291.839 		"/>
	</g>
	<g id="HATCH_31_">
		<polygon fill-rule="evenodd" clip-rule="evenodd" fill="#D6D6D6" points="422.645,293.027 428.565,293.027 429.56,291.839 
			423.64,291.839 		"/>
	</g>
	<g id="HATCH_32_">
		<polygon fill-rule="evenodd" clip-rule="evenodd" fill="#D6D6D6" points="423.64,291.839 429.56,291.839 437.299,282.607 
			431.378,282.607 		"/>
	</g>
</g>
<g id="GEOMETRIE">
	<g id="ARC">
		
			<path fill="none" stroke="#D6D6D6" stroke-width="0.7087" stroke-linecap="round" stroke-linejoin="round" stroke-miterlimit="10" d="
			M422.644,289.792c-0.335-2.835-2.027-5.331-4.537-6.691"/>
	</g>
	<g id="ARC_1_">
		
			<path fill="none" stroke="#D6D6D6" stroke-width="0.7087" stroke-linecap="round" stroke-linejoin="round" stroke-miterlimit="10" d="
			M418.106,298.541c2.516-1.363,4.21-3.867,4.539-6.71"/>
	</g>
	<g id="LINE">
		
			<line fill="none" stroke="#D6D6D6" stroke-width="0.7087" stroke-linecap="round" stroke-linejoin="round" stroke-miterlimit="10" x1="422.645" y1="293.027" x2="422.645" y2="291.84"/>
	</g>
	<g id="LINE_1_">
		
			<line fill="none" stroke="#D6D6D6" stroke-width="0.7087" stroke-linecap="round" stroke-linejoin="round" stroke-miterlimit="10" x1="418.106" y1="304.119" x2="422.645" y2="310.704"/>
	</g>
	<g id="LINE_3_">
		
			<line fill="none" stroke="#D6D6D6" stroke-width="0.7087" stroke-linecap="round" stroke-linejoin="round" stroke-miterlimit="10" x1="416.861" y1="310.954" x2="422.137" y2="310.954"/>
	</g>
	<g id="LINE_4_">
		
			<line fill="none" stroke="#D6D6D6" stroke-width="0.7087" stroke-linecap="round" stroke-linejoin="round" stroke-miterlimit="10" x1="409.257" y1="299.92" x2="416.861" y2="310.954"/>
	</g>
	<g id="LINE_5_">
		
			<line fill="none" stroke="#D6D6D6" stroke-width="0.7087" stroke-linecap="round" stroke-linejoin="round" stroke-miterlimit="10" x1="413.923" y1="299.035" x2="422.137" y2="310.954"/>
	</g>
	<g id="ARC_2_">
		
			<path fill="none" stroke="#D6D6D6" stroke-width="0.7087" stroke-linecap="round" stroke-linejoin="round" stroke-miterlimit="10" d="
			M413.923,294.525c2.046,0,3.705-1.659,3.705-3.704c0-2.046-1.659-3.705-3.705-3.705"/>
	</g>
	<g id="ARC_3_">
		
			<path fill="none" stroke="#D6D6D6" stroke-width="0.7087" stroke-linecap="round" stroke-linejoin="round" stroke-miterlimit="10" d="
			M413.923,299.035c4.537,0,8.214-3.678,8.214-8.214c0-4.537-3.677-8.214-8.214-8.214"/>
	</g>
	<g id="LINE_6_">
		
			<line fill="none" stroke="#D6D6D6" stroke-width="0.7087" stroke-linecap="round" stroke-linejoin="round" stroke-miterlimit="10" x1="413.923" y1="287.116" x2="409.257" y2="287.116"/>
	</g>
</g>
<g id="SS_x5F_STAH_x5F__x5F__x5F__x5F__x5F__x5F_">
	<g id="LINE_2_">
		
			<line fill="none" stroke="#D6D6D6" stroke-width="0.7087" stroke-linecap="round" stroke-linejoin="round" stroke-miterlimit="10" x1="418.106" y1="282.606" x2="418.106" y2="283.101"/>
	</g>
	<g id="LINE_7_">
		
			<line fill="none" stroke="#FF0000" stroke-width="0.7087" stroke-linecap="round" stroke-linejoin="round" stroke-miterlimit="10" x1="442.969" y1="316.623" x2="399.032" y2="316.623"/>
	</g>
	<g id="LINE_8_">
		
			<line fill="none" stroke="#FF0000" stroke-width="0.7087" stroke-linecap="round" stroke-linejoin="round" stroke-miterlimit="10" x1="399.032" y1="316.623" x2="399.032" y2="276.938"/>
	</g>
	<g id="LINE_9_">
		
			<line fill="none" stroke="#FF0000" stroke-width="0.7087" stroke-linecap="round" stroke-linejoin="round" stroke-miterlimit="10" x1="399.032" y1="276.938" x2="442.969" y2="276.938"/>
	</g>
	<g id="LINE_10_">
		
			<line fill="none" stroke="#FF0000" stroke-width="0.7087" stroke-linecap="round" stroke-linejoin="round" stroke-miterlimit="10" x1="442.969" y1="316.623" x2="442.969" y2="276.938"/>
	</g>
	<g id="LINE_11_">
		
			<line fill="none" stroke="#D6D6D6" stroke-width="0.7087" stroke-linecap="round" stroke-linejoin="round" stroke-miterlimit="10" x1="437.299" y1="282.606" x2="427.051" y2="294.834"/>
	</g>
	<g id="LINE_12_">
		
			<line fill="none" stroke="#D6D6D6" stroke-width="0.7087" stroke-linecap="round" stroke-linejoin="round" stroke-miterlimit="10" x1="422.645" y1="310.704" x2="422.645" y2="300.092"/>
	</g>
	<g id="LINE_13_">
		
			<line fill="none" stroke="#D6D6D6" stroke-width="0.7087" stroke-linecap="round" stroke-linejoin="round" stroke-miterlimit="10" x1="437.299" y1="310.954" x2="427.051" y2="294.834"/>
	</g>
	<g id="LINE_14_">
		
			<line fill="none" stroke="#D6D6D6" stroke-width="0.7087" stroke-linecap="round" stroke-linejoin="round" stroke-miterlimit="10" x1="431.95" y1="310.954" x2="437.299" y2="310.954"/>
	</g>
	<g id="LINE_15_">
		
			<line fill="none" stroke="#D6D6D6" stroke-width="0.7087" stroke-linecap="round" stroke-linejoin="round" stroke-miterlimit="10" x1="431.95" y1="310.954" x2="424.01" y2="298.464"/>
	</g>
	<g id="LINE_16_">
		
			<line fill="none" stroke="#D6D6D6" stroke-width="0.7087" stroke-linecap="round" stroke-linejoin="round" stroke-miterlimit="10" x1="422.645" y1="293.027" x2="431.378" y2="282.606"/>
	</g>
	<g id="LINE_17_">
		
			<line fill="none" stroke="#D6D6D6" stroke-width="0.7087" stroke-linecap="round" stroke-linejoin="round" stroke-miterlimit="10" x1="437.299" y1="282.606" x2="431.378" y2="282.606"/>
	</g>
	<g id="LINE_18_">
		
			<line fill="none" stroke="#D6D6D6" stroke-width="0.7087" stroke-linecap="round" stroke-linejoin="round" stroke-miterlimit="10" x1="422.645" y1="300.092" x2="424.01" y2="298.464"/>
	</g>
	<g id="LINE_19_">
		
			<line fill="none" stroke="#D6D6D6" stroke-width="0.7087" stroke-linecap="round" stroke-linejoin="round" stroke-miterlimit="10" x1="422.645" y1="282.606" x2="422.645" y2="289.792"/>
	</g>
	<g id="LINE_20_">
		
			<line fill="none" stroke="#D6D6D6" stroke-width="0.7087" stroke-linecap="round" stroke-linejoin="round" stroke-miterlimit="10" x1="409.257" y1="310.954" x2="404.701" y2="310.954"/>
	</g>
	<g id="LINE_21_">
		
			<line fill="none" stroke="#D6D6D6" stroke-width="0.7087" stroke-linecap="round" stroke-linejoin="round" stroke-miterlimit="10" x1="409.257" y1="299.92" x2="409.257" y2="310.954"/>
	</g>
	<g id="LINE_22_">
		
			<line fill="none" stroke="#D6D6D6" stroke-width="0.7087" stroke-linecap="round" stroke-linejoin="round" stroke-miterlimit="10" x1="418.106" y1="304.119" x2="418.106" y2="298.541"/>
	</g>
	<g id="LINE_23_">
		
			<line fill="none" stroke="#D6D6D6" stroke-width="0.7087" stroke-linecap="round" stroke-linejoin="round" stroke-miterlimit="10" x1="422.137" y1="310.954" x2="417.599" y2="310.954"/>
	</g>
	<g id="LINE_24_">
		
			<line fill="none" stroke="#D6D6D6" stroke-width="0.7087" stroke-linecap="round" stroke-linejoin="round" stroke-miterlimit="10" x1="418.106" y1="282.606" x2="422.645" y2="282.606"/>
	</g>
	<g id="LINE_25_">
		
			<line fill="none" stroke="#D6D6D6" stroke-width="0.7087" stroke-linecap="round" stroke-linejoin="round" stroke-miterlimit="10" x1="409.257" y1="294.525" x2="413.923" y2="294.525"/>
	</g>
	<g id="LINE_26_">
		
			<line fill="none" stroke="#D6D6D6" stroke-width="0.7087" stroke-linecap="round" stroke-linejoin="round" stroke-miterlimit="10" x1="409.257" y1="287.116" x2="409.257" y2="294.525"/>
	</g>
	<g id="LINE_27_">
		
			<line fill="none" stroke="#D6D6D6" stroke-width="0.7087" stroke-linecap="round" stroke-linejoin="round" stroke-miterlimit="10" x1="404.701" y1="282.606" x2="413.923" y2="282.606"/>
	</g>
	<g id="LINE_28_">
		
			<line fill="none" stroke="#D6D6D6" stroke-width="0.7087" stroke-linecap="round" stroke-linejoin="round" stroke-miterlimit="10" x1="404.701" y1="310.954" x2="404.701" y2="282.606"/>
	</g>
</g>
</svg>
